<?xml version="1.0" encoding="UTF-8" standalone="no"?>
<svg width="67px" height="66px" viewBox="0 0 67 66" version="1.1" xmlns="http://www.w3.org/2000/svg" xmlns:xlink="http://www.w3.org/1999/xlink">
    <!-- Generator: Sketch 3.7.2 (28276) - http://www.bohemiancoding.com/sketch -->
    <title>Shape</title>
    <desc>Created with Sketch.</desc>
    <defs></defs>
    <g id="icons" stroke="none" stroke-width="1" fill="none" fill-rule="evenodd">
        <g id="Artboard-1" transform="translate(-290.000000, -451.000000)" fill="#333333">
            <path d="M355.066973,505.88338 L345.763364,515.111834 C345.343652,515.577935 344.795809,515.974464 344.119607,516.300392 C343.443405,516.626777 342.778976,516.836522 342.126319,516.929628 C342.079685,516.929628 341.939438,516.941623 341.70615,516.964928 C341.47332,516.988119 341.170195,517 340.797118,517 C339.910831,517 338.476702,516.848517 336.49473,516.545437 C334.512758,516.242358 332.087871,515.496482 329.22007,514.308153 C326.351583,513.119596 323.098931,511.336531 319.461544,508.959645 C315.824157,506.582874 311.953368,503.319939 307.84952,499.171527 C304.585096,495.955431 301.880287,492.879165 299.735094,489.942843 C297.589901,487.006294 295.86442,484.291256 294.55865,481.797616 C293.252766,479.303976 292.273438,477.043387 291.620554,475.015848 C290.967669,472.988309 290.52464,471.240431 290.291466,469.772213 C290.058293,468.303995 289.965024,467.150396 290.011659,466.311414 C290.058293,465.472433 290.081611,465.006332 290.081611,464.913112 C290.17488,464.26057 290.384736,463.596377 290.711178,462.92053 C291.037621,462.244684 291.434015,461.697015 291.900361,461.277525 L301.203971,451.978812 C301.856856,451.326271 302.60301,451 303.442433,451 C304.048683,451 304.584982,451.174788 305.051328,451.524363 C305.517674,451.873939 305.914069,452.305082 306.240511,452.817793 L313.72537,467.010566 C314.145082,467.756327 314.261668,468.572003 314.07513,469.457595 C313.888591,470.343187 313.492197,471.088948 312.885947,471.694879 L309.458301,475.120721 C309.365032,475.213941 309.283421,475.365424 309.213469,475.575169 C309.143517,475.784915 309.108541,475.959703 309.108541,476.099533 C309.29508,477.078345 309.714791,478.196987 310.367676,479.455459 C310.927292,480.574101 311.790033,481.937446 312.955899,483.545495 C314.121764,485.153543 315.777294,487.006179 317.922487,489.103633 C320.021046,491.247926 321.886431,492.914008 323.518643,494.102794 C325.150512,495.290894 326.515033,496.165176 327.610947,496.724497 C328.70686,497.283818 329.546284,497.621741 330.129102,497.737924 L331.003273,497.912826 C331.096543,497.912826 331.248448,497.877754 331.458075,497.807953 C331.667931,497.737924 331.819494,497.65647 331.912877,497.563136 L335.900024,493.508058 C336.739905,492.762411 337.718775,492.38953 338.83812,492.38953 C339.631138,492.38953 340.260362,492.529246 340.726709,492.809021 L354.297159,500.779346 C355.276829,501.385734 355.859647,502.154572 356.0463,503.086774 C356.186318,504.158921 355.859419,505.091122 355.066973,505.88338 Z" id="Shape"></path>
        </g>
    </g>
</svg>