<?xml version="1.0" encoding="UTF-8" standalone="no"?>
<svg width="43px" height="42px" viewBox="0 0 43 42" version="1.1" xmlns="http://www.w3.org/2000/svg" xmlns:xlink="http://www.w3.org/1999/xlink">
    <!-- Generator: Sketch 3.7.1 (28215) - http://www.bohemiancoding.com/sketch -->
    <title>Shape</title>
    <desc>Created with Sketch.</desc>
    <defs></defs>
    <g id="icons" stroke="none" stroke-width="1" fill="none" fill-rule="evenodd">
        <path d="M41.8813158,1.16348005 C41.5426988,0.388140121 40.9566751,0.000417916685 40.1204238,0 L1.93955546,0 C1.10445344,0 0.517593937,0.388140121 0.179499339,1.16348005 C-0.158386301,1.97852207 -0.0193245243,2.67498022 0.597311545,3.25149629 L15.3034863,17.9572531 L15.3034863,32.4542605 C15.3034863,32.9719548 15.4924891,33.4188122 15.8701813,33.7972358 L23.5060415,41.4328871 C23.8643006,41.8104748 24.3115759,42 24.8487034,42 C25.0871248,42 25.3355763,41.9499545 25.5941622,41.8505948 C26.3700246,41.5122912 26.7580602,40.9258496 26.7580602,40.0906431 L26.7580602,17.9573576 L41.4637125,3.25160077 C42.0805576,2.6750847 42.2193059,1.97883551 41.8813158,1.16348005 L41.8813158,1.16348005 Z" id="Shape" fill="#000000"></path>
    </g>
</svg>