<?xml version="1.0" encoding="UTF-8" standalone="no"?>
<svg width="75px" height="66px" viewBox="0 0 75 66" version="1.1" xmlns="http://www.w3.org/2000/svg" xmlns:xlink="http://www.w3.org/1999/xlink">
    <!-- Generator: Sketch 3.7.2 (28276) - http://www.bohemiancoding.com/sketch -->
    <title>Shape</title>
    <desc>Created with Sketch.</desc>
    <defs></defs>
    <g id="icons" stroke="none" stroke-width="1" fill="none" fill-rule="evenodd">
        <g id="Artboard-1" transform="translate(-418.000000, -429.000000)" fill="#333333">
            <path d="M491.42825,459.420077 L457.990101,430.027843 C456.431942,428.657386 453.907794,428.657386 452.370411,430.027843 L418.942718,459.420077 C417.384559,460.790535 417.800068,461.901504 419.877613,461.901504 L430.192554,461.901504 L430.192554,491.999596 C430.192554,493.639992 431.542958,495 433.194538,495 L445.815554,495 L445.815554,475.20097 C445.815554,473.560574 447.165958,472.200566 448.817673,472.200566 L461.563342,472.200566 C463.225242,472.200566 464.565326,473.529495 464.565326,475.20097 L464.565326,495 L477.186342,495 C478.848377,495 480.188326,493.650307 480.188326,491.999596 L480.188326,461.891054 L490.503403,461.891054 C492.549988,461.891054 492.965497,460.790535 491.42825,459.420077 L491.42825,459.420077 Z" id="Shape"></path>
        </g>
    </g>
</svg>