<?xml version="1.0" encoding="UTF-8" standalone="no"?>
<svg width="130px" height="130px" viewBox="0 0 130 130" version="1.1" xmlns="http://www.w3.org/2000/svg" xmlns:xlink="http://www.w3.org/1999/xlink">
    <!-- Generator: Sketch 3.7.2 (28276) - http://www.bohemiancoding.com/sketch -->
    <title>alert copy 4</title>
    <desc>Created with Sketch.</desc>
    <defs></defs>
    <g id="icons" stroke="none" stroke-width="1" fill="none" fill-rule="evenodd">
        <g id="Artboard-1" transform="translate(-930.000000, -846.000000)">
            <g id="alert-copy-4" transform="translate(930.000000, 846.000000)">
                <path d="M65,130 C100.898509,130 130,100.898509 130,65 C130,29.1014913 100.898509,0 65,0 C29.1014913,0 0,29.1014913 0,65 C0,100.898509 29.1014913,130 65,130 Z" id="Oval-1" fill="#F68E05"></path>
                <g id="wait" transform="translate(65.500000, 65.000000) scale(1, -1) translate(-65.500000, -65.000000) translate(20.000000, 44.000000)" fill="#FFFFFF">
                    <rect id="Rectangle-1-Copy" transform="translate(45.465350, 21.048781) rotate(-316.000000) translate(-45.465350, -21.048781) " x="39.9653505" y="-2.00635999" width="11" height="46.1102824"></rect>
                    <rect id="Rectangle-1-Copy-2" transform="translate(20.500000, 21.105021) rotate(-44.000000) translate(-20.500000, -21.105021) " x="15" y="-2" width="11" height="46.2100424"></rect>
                    <rect id="Rectangle-1-Copy-3" transform="translate(70.500000, 21.105021) rotate(-44.000000) translate(-70.500000, -21.105021) " x="65" y="-2" width="11" height="46.2100424"></rect>
                </g>
            </g>
        </g>
    </g>
</svg>