<?xml version="1.0" encoding="utf-8"?>
<!-- Generator: Adobe Illustrator 18.1.1, SVG Export Plug-In . SVG Version: 6.00 Build 0)  -->
<svg version="1.1" id="Ebene_1" xmlns="http://www.w3.org/2000/svg" xmlns:xlink="http://www.w3.org/1999/xlink" x="0px" y="0px"
	 viewBox="-36 300.9 523 240" enable-background="new -36 300.9 523 240" xml:space="preserve">
<title>leihnah-logo copy 5</title>
<desc>Created with Sketch.</desc>
<g id="logo">
	<g id="Artboard-4" transform="translate(-94.000000, -525.000000)">
		<g id="leihnah-logo-copy-5" transform="translate(94.000000, 525.000000)">
			<g id="box" transform="translate(0.000000, 32.000000)">
				<g id="Rectangle-4">
					<rect x="-36" y="300.9" fill="#F9EB33" width="523" height="176"/>
				</g>
				<g enable-background="new    ">
					<path d="M24.6,420.9v-64.4h15.7v50.9h24.9v13.6H24.6z"/>
					<path d="M73.8,420.9v-64.4h43.3v13.1H88.8v12.2h26.8v12.5H88.8v13.4h29.9v13.3H73.8z"/>
					<path d="M130.3,420.9v-64.4h15.7v64.4H130.3z"/>
				</g>
				<g>
				</g>
				<g enable-background="new    ">
					<path d="M201.3,420.9V394h-25.1v26.9h-15.6v-64.4h15.6v24.4h25.1v-24.4h15.6v64.4H201.3z"/>
				</g>
				<g enable-background="new    ">
					<path d="M287.2,408h0.2v-51.5h9v64.4h-11.4l-34-52.6h-0.2v52.6h-9v-64.4h11.7L287.2,408z"/>
					<path d="M314.7,420.9h-10l27.9-64.4h8.2l27.7,64.4h-10.2l-6.6-15.8h-30.6L314.7,420.9z M324.4,397.1h24.1l-12-30.2L324.4,397.1
						z"/>
					<path d="M376.8,356.5h9v26.9h32.6v-26.9h9.1v64.4h-9.1v-29.5h-32.6v29.5h-9V356.5z"/>
				</g>
			</g>
			<g id="arrow" transform="translate(165.000000, 0.000000)">
				<g id="Shape">
					<polygon points="-36,308.8 -28.2,301.4 4.8,332.9 -28.2,364.5 -36,357.1 -10.8,332.9 					"/>
				</g>
				<g id="Shape-Copy">
					<polygon points="156.8,533.1 149.1,540.5 116,508.9 149.1,477.4 156.8,484.8 131.6,508.9 					"/>
				</g>
			</g>
		</g>
	</g>
</g>
</svg>
